# xmcd
#
# Track frame offsets:
#	150
#	16955
#	32176
#	48263
#	63028
#	77559
#	88199
#	100729
#	119096
#	132383
#	145657
#
# Disc length: 2121 seconds
#
# Revision: 1
# Processed by: cddbd v1.5.2PL0 Copyright (c) Steve Scherf et al.
# Submitted via: audiograbber 1.83.01
#
DISCID=8d08470b
DTITLE=Various Artist - CDX Volume 565 (March 4, 2013)
DYEAR=2013
DGENRE=Country
TTITLE0=Sheryl Crow - Easy [Radio Edit]
TTITLE1=Drake White - The Simple Life 
TTITLE2=JB And The Moonshine Band - The Only Drug
TTITLE3=Julie Ingram - Action Reaction
TTITLE4=Adam Wayne - Down Every Road There's A Rodeo
TTITLE5=Shanna Strassberg - Has Anybody Seen My Heart
TTITLE6=Reckless Johnny Wales - Funky Monkey Blues
TTITLE7=Jackson Delaney - Shotgun Wedding
TTITLE8=Miss Jeanie - Walk A Little Faster
TTITLE9=Angela Hesse - Which One Of You Boys
TTITLE10=Wheeler Sisters - Whiskey Please 
EXTD=
EXTT0=
EXTT1=
EXTT2=
EXTT3=
EXTT4=
EXTT5=
EXTT6=
EXTT7=
EXTT8=
EXTT9=
EXTT10=
PLAYORDER=
